<svg xmlns="http://www.w3.org/2000/svg" xmlns:xlink="http://www.w3.org/1999/xlink" height="206.25" version="1" width="406.25"><defs><linearGradient id="e"><stop offset="0" stop-color="#531971"/><stop offset=".606" stop-color="#2c1254"/><stop offset=".805"/><stop offset="1" stop-opacity="0"/></linearGradient><linearGradient id="i"><stop offset="0" stop-color="#323232"/><stop offset="1" stop-color="#969696"/></linearGradient><linearGradient id="f"><stop offset="0" stop-color="#bebebe"/><stop offset="1" stop-color="#d2d2d2"/></linearGradient><linearGradient id="c"><stop offset="0"/><stop offset="1" stop-opacity="0"/></linearGradient><linearGradient id="d"><stop offset="0" stop-color="#646464"/><stop offset="1" stop-color="#fff"/></linearGradient><linearGradient id="g"><stop offset="0" stop-color="#7d7d7d"/><stop offset="1" stop-color="#dcdcdc"/></linearGradient><linearGradient id="h"><stop offset="0"/><stop offset="1" stop-opacity=".588"/></linearGradient><linearGradient id="a"><stop offset="0"/><stop offset="1" stop-color="#fff"/></linearGradient><linearGradient id="b"><stop offset="0" stop-color="#fff"/><stop offset=".294" stop-color="#fff"/><stop offset="1" stop-color="#fff" stop-opacity="0"/></linearGradient><linearGradient xlink:href="#a" id="aI" gradientUnits="userSpaceOnUse" gradientTransform="matrix(1.4613 0 0 .68432 390.988 -110.87)" x1="-338.127" y1="192.442" x2="-337.993" y2="214.703"/><linearGradient xlink:href="#a" id="aH" gradientUnits="userSpaceOnUse" gradientTransform="matrix(1.56589 0 0 .7328 331.41 -147.922)" x1="-327.883" y1="220.743" x2="-327.783" y2="233.921"/><radialGradient xlink:href="#b" id="aG" gradientUnits="userSpaceOnUse" gradientTransform="matrix(.5648 .11444 .10965 2.8513 -205.536 -428.778)" cx="387.728" cy="177.343" fx="387.728" fy="177.343" r="15.509"/><radialGradient xlink:href="#c" id="aF" gradientUnits="userSpaceOnUse" gradientTransform="matrix(.27881 .06454 -.23189 2.79362 -31.55 -441.922)" cx="387.728" cy="177.343" fx="387.728" fy="177.343" r="15.509"/><linearGradient xlink:href="#b" id="aE" gradientUnits="userSpaceOnUse" gradientTransform="matrix(.33968 0 0 2.94392 -124.125 -349.237)" spreadMethod="reflect" x1="550.126" y1="159.703" x2="559.423" y2="159.703"/><linearGradient xlink:href="#b" id="aD" gradientUnits="userSpaceOnUse" gradientTransform="matrix(.25443 0 0 1.21601 -77.065 -108.074)" x1="547.195" y1="132.622" x2="556.776" y2="170.49"/><linearGradient xlink:href="#a" id="aC" gradientUnits="userSpaceOnUse" gradientTransform="matrix(.33968 0 0 2.94392 -124.125 -349.237)" x1="547.195" y1="132.622" x2="556.776" y2="170.49"/><linearGradient xlink:href="#d" id="aB" gradientUnits="userSpaceOnUse" gradientTransform="matrix(.35887 0 0 2.78652 -124.125 -349.237)" spreadMethod="reflect" x1="500.989" y1="162.275" x2="520.821" y2="162.194"/><linearGradient xlink:href="#a" id="az" gradientUnits="userSpaceOnUse" gradientTransform="matrix(.35887 0 0 2.78652 -124.125 -349.237)" x1="525.778" y1="185.738" x2="525.778" y2="138.617"/><linearGradient xlink:href="#c" id="aA" gradientUnits="userSpaceOnUse" gradientTransform="matrix(.35887 0 0 2.78652 -124.125 -349.237)" x1="517.736" y1="185.108" x2="517.736" y2="137.737"/><linearGradient xlink:href="#b" id="ay" gradientUnits="userSpaceOnUse" gradientTransform="matrix(.20916 -.79862 .59792 .09964 -89.948 253.269)" x1="338.452" y1="369.618" x2="332.513" y2="391.975"/><linearGradient xlink:href="#b" id="ax" gradientUnits="userSpaceOnUse" gradientTransform="matrix(.20853 -.82126 .598 .10214 -47.052 257.218)" x1="338.452" y1="369.618" x2="332.513" y2="391.975"/><radialGradient xlink:href="#b" id="aw" gradientUnits="userSpaceOnUse" cx="336.936" cy="375.661" fx="336.936" fy="375.661" r="1.414" gradientTransform="translate(-738.785 -1087.2) scale(2.975)"/><radialGradient xlink:href="#b" id="av" gradientUnits="userSpaceOnUse" cx="336.936" cy="375.661" fx="336.936" fy="375.661" r="1.414" gradientTransform="matrix(1.4 0 0 1.4 -211.07 -503.235)"/><linearGradient xlink:href="#b" id="au" gradientUnits="userSpaceOnUse" gradientTransform="matrix(1.02282 0 0 .61083 -77.594 -210.324)" x1="338.452" y1="369.618" x2="332.513" y2="391.975"/><linearGradient xlink:href="#b" id="at" gradientUnits="userSpaceOnUse" gradientTransform="matrix(1.27362 0 0 1.21992 -160.714 -452.607)" x1="333.626" y1="404.927" x2="327.734" y2="386.887"/><radialGradient xlink:href="#b" id="as" gradientUnits="userSpaceOnUse" gradientTransform="matrix(.98224 0 0 .98228 -64.533 -359.003)" cx="331.81" cy="391.51" fx="331.81" fy="391.51" r="10.186"/><linearGradient xlink:href="#a" id="ar" gradientUnits="userSpaceOnUse" gradientTransform="matrix(1.09129 0 0 .91634 -124.125 -349.237)" x1="340.569" y1="396.865" x2="363.776" y2="421.515"/><radialGradient xlink:href="#b" id="aq" gradientUnits="userSpaceOnUse" gradientTransform="matrix(.43133 0 0 2.3184 -124.125 -349.237)" cx="331.896" cy="204.994" fx="331.781" fy="205.331" r="17.615"/><radialGradient xlink:href="#b" id="ap" gradientUnits="userSpaceOnUse" cx="336.936" cy="375.661" fx="336.936" fy="375.661" r="1.414" gradientTransform="translate(-780.16 -1085.75) scale(2.975)"/><radialGradient xlink:href="#b" id="ao" gradientUnits="userSpaceOnUse" cx="336.936" cy="375.661" fx="336.936" fy="375.661" r="1.414" gradientTransform="matrix(1.46332 0 0 1.4 -276.376 -500.44)"/><linearGradient xlink:href="#b" id="an" gradientUnits="userSpaceOnUse" gradientTransform="matrix(1.02282 0 0 .61083 -120.76 -208.424)" x1="338.452" y1="369.618" x2="332.513" y2="391.975"/><linearGradient xlink:href="#b" id="am" gradientUnits="userSpaceOnUse" gradientTransform="matrix(1.27362 0 0 1.21992 -203.88 -450.708)" x1="333.626" y1="404.927" x2="327.734" y2="386.887"/><radialGradient xlink:href="#b" id="al" gradientUnits="userSpaceOnUse" gradientTransform="matrix(.98224 0 0 .98228 -107.699 -357.104)" cx="331.81" cy="391.51" fx="331.81" fy="391.51" r="10.186"/><linearGradient xlink:href="#a" id="ak" gradientUnits="userSpaceOnUse" gradientTransform="matrix(1.18118 0 0 .84661 -124.125 -349.237)" x1="288.186" y1="437.918" x2="293.397" y2="443.318"/><linearGradient xlink:href="#b" id="aj" gradientUnits="userSpaceOnUse" gradientTransform="matrix(2.74099 0 0 .37192 -118.887 -361.689)" x1="169.784" y1="1014.146" x2="169.784" y2="1046.798"/><linearGradient xlink:href="#b" id="ai" gradientUnits="userSpaceOnUse" gradientTransform="matrix(2.32989 0 0 .51472 -123.625 -424.928)" spreadMethod="reflect" x1="202.385" y1="850.504" x2="202.488" y2="853.857"/><linearGradient xlink:href="#d" id="ag" gradientUnits="userSpaceOnUse" gradientTransform="matrix(2.23385 0 0 .53685 -123.625 -424.928)" spreadMethod="reflect" x1="204.792" y1="839.649" x2="221.939" y2="839.649"/><linearGradient xlink:href="#a" id="ah" gradientUnits="userSpaceOnUse" gradientTransform="matrix(2.23385 0 0 .53685 -123.625 -424.928)" x1="203.411" y1="826.88" x2="217.539" y2="841.11"/><linearGradient xlink:href="#a" id="af" gradientUnits="userSpaceOnUse" gradientTransform="matrix(2.3702 0 0 .4219 349.237 -124.125)" x1="-227.783" y1="576.825" x2="-185.93" y2="565.61"/><linearGradient xlink:href="#a" id="ae" gradientUnits="userSpaceOnUse" gradientTransform="matrix(.72008 0 0 1.38873 -124.125 -349.237)" spreadMethod="reflect" x1="638.203" y1="300.198" x2="639.633" y2="315.387"/><radialGradient xlink:href="#b" id="ad" gradientUnits="userSpaceOnUse" cx="365.265" cy="421.079" fx="365.265" fy="421.079" r="65.002" gradientTransform="matrix(.41497 0 0 .41512 89.645 -75.364)"/><radialGradient xlink:href="#b" id="ac" gradientUnits="userSpaceOnUse" cx="389.472" cy="447.88" fx="389.472" fy="447.88" r="8.689" gradientTransform="matrix(.41497 0 0 .41512 89.645 -75.364)"/><radialGradient xlink:href="#e" id="ab" gradientUnits="userSpaceOnUse" cx="406.763" cy="459.983" fx="406.763" fy="459.983" r="55.331" gradientTransform="matrix(.41497 0 0 .41512 89.645 -75.364)"/><linearGradient xlink:href="#a" id="aa" gradientUnits="userSpaceOnUse" x1="398.836" y1="404.496" x2="398.836" y2="514.755" gradientTransform="matrix(.70873 0 0 .709 -29.847 -210.541)"/><linearGradient xlink:href="#b" id="Y" gradientUnits="userSpaceOnUse" spreadMethod="reflect" x1="401.512" y1="455.608" x2="372.63" y2="426.726" gradientTransform="matrix(.91669 0 0 .91703 -114.437 -306.235)"/><linearGradient xlink:href="#a" id="Z" gradientUnits="userSpaceOnUse" x1="378.749" y1="513.119" x2="378.749" y2="403.918" gradientTransform="matrix(.91669 0 0 .91703 -114.437 -306.235)"/><linearGradient xlink:href="#a" id="W" gradientUnits="userSpaceOnUse" spreadMethod="reflect" x1="406.763" y1="387.342" x2="405.888" y2="465.235" gradientTransform="matrix(.91669 0 0 .91703 -114.437 -306.235)"/><linearGradient xlink:href="#a" id="X" gradientUnits="userSpaceOnUse" x1="378.749" y1="513.119" x2="378.749" y2="403.918" gradientTransform="matrix(.91669 0 0 .91703 -114.437 -306.235)"/><linearGradient xlink:href="#a" id="V" gradientUnits="userSpaceOnUse" x1="393.839" y1="404.703" x2="393.839" y2="515.285" gradientTransform="matrix(.93005 0 0 .9304 -119.872 -312.383)"/><radialGradient xlink:href="#f" id="T" gradientUnits="userSpaceOnUse" cx="387.545" cy="514.144" fx="387.545" fy="514.144" r="108.395" gradientTransform="matrix(1.08387 0 0 1.08428 -182.443 -383.166)"/><linearGradient xlink:href="#a" id="U" gradientUnits="userSpaceOnUse" x1="404.613" y1="510.837" x2="404.613" y2="406.235" gradientTransform="matrix(1.08387 0 0 1.08428 -182.443 -383.166)"/><linearGradient xlink:href="#c" id="S" gradientUnits="userSpaceOnUse" x1="406.763" y1="402.415" x2="406.763" y2="519.047" gradientTransform="matrix(1.11713 0 0 1.11755 -195.969 -398.469)"/><linearGradient xlink:href="#a" id="R" gradientUnits="userSpaceOnUse" gradientTransform="matrix(.83405 0 0 1.19897 -124.125 -349.237)" spreadMethod="reflect" x1="337.994" y1="361.387" x2="336.712" y2="369.076"/><linearGradient xlink:href="#a" id="Q" gradientUnits="userSpaceOnUse" gradientTransform="matrix(.83405 0 0 1.19897 -124.125 -349.237)" spreadMethod="reflect" x1="234.903" y1="340.219" x2="243.749" y2="372.004"/><linearGradient xlink:href="#a" id="P" gradientUnits="userSpaceOnUse" gradientTransform="matrix(.83405 0 0 1.19897 -124.125 -349.237)" spreadMethod="reflect" x1="271.049" y1="350.814" x2="271.049" y2="354.6"/><linearGradient xlink:href="#a" id="O" gradientUnits="userSpaceOnUse" gradientTransform="matrix(.83405 0 0 1.19897 -124.125 -349.237)" spreadMethod="reflect" x1="302.409" y1="349.931" x2="302.409" y2="351.375"/><linearGradient xlink:href="#c" id="N" gradientUnits="userSpaceOnUse" gradientTransform="matrix(2.904 0 0 .42713 -164.029 -349.237)" x1="91.791" y1="1207.41" x2="91.791" y2="1233.528"/><radialGradient xlink:href="#g" id="M" gradientUnits="userSpaceOnUse" gradientTransform="matrix(2.904 0 0 .42713 -164.029 -349.237)" cx="81.898" cy="1244.329" fx="81.898" fy="1244.329" r="87.749"/><linearGradient xlink:href="#d" id="L" gradientUnits="userSpaceOnUse" gradientTransform="matrix(1.13228 0 0 1.09599 -162.465 -351.984)" x1="260.925" y1="415.672" x2="241.631" y2="393.491"/><linearGradient xlink:href="#d" id="K" gradientUnits="userSpaceOnUse" gradientTransform="matrix(.8257 0 0 1.21108 -124.125 -349.237)" x1="286.238" y1="529.026" x2="286.238" y2="291.345"/><linearGradient xlink:href="#h" id="J" gradientUnits="userSpaceOnUse" gradientTransform="matrix(1.00653 0 0 1.23234 -164.029 -348.737)" x1="265.967" y1="439.407" x2="265.967" y2="293.784"/><linearGradient xlink:href="#c" id="I" gradientUnits="userSpaceOnUse" gradientTransform="matrix(.5547 0 0 1.80278 -124.125 -349.237)" x1="263.205" y1="258.249" x2="286.641" y2="258.249"/><radialGradient xlink:href="#a" id="H" gradientUnits="userSpaceOnUse" gradientTransform="matrix(.5547 0 0 1.80278 -124.125 -349.237)" spreadMethod="reflect" cx="272.219" cy="277.404" fx="270.416" fy="276.277" r="36.908"/><linearGradient xlink:href="#i" id="G" gradientUnits="userSpaceOnUse" gradientTransform="matrix(1.55423 0 0 .6434 -124.125 -349.237)" x1="241.941" y1="802.59" x2="241.941" y2="653.531"/><linearGradient xlink:href="#a" id="F" gradientUnits="userSpaceOnUse" gradientTransform="matrix(1.5288 0 0 .6541 -124.125 -349.237)" x1="238.774" y1="787.976" x2="238.774" y2="661.189"/><linearGradient xlink:href="#d" id="D" gradientUnits="userSpaceOnUse" gradientTransform="matrix(1.68783 0 0 .59248 -124.125 -349.237)" x1="224.528" y1="781.657" x2="224.515" y2="660.402"/><linearGradient xlink:href="#a" id="E" gradientUnits="userSpaceOnUse" gradientTransform="matrix(.91078 0 0 1.09796 -124.125 -349.237)" x1="409.315" y1="405.392" x2="389.56" y2="350.858"/><linearGradient xlink:href="#a" id="C" gradientUnits="userSpaceOnUse" gradientTransform="matrix(.91078 0 0 1.09796 -124.125 -349.237)" x1="410.823" y1="486.583" x2="410.823" y2="328.516"/><linearGradient xlink:href="#a" id="B" gradientUnits="userSpaceOnUse" gradientTransform="matrix(.91917 0 0 1.10218 -126.934 -351.773)" x1="390.373" y1="334.772" x2="390.373" y2="489.117"/><linearGradient xlink:href="#a" id="A" gradientUnits="userSpaceOnUse" gradientTransform="matrix(.72008 0 0 1.38873 -124.125 -349.237)" spreadMethod="reflect" x1="665.365" y1="310.83" x2="665.365" y2="311.972"/><linearGradient xlink:href="#a" id="z" gradientUnits="userSpaceOnUse" gradientTransform="matrix(.72008 0 0 1.38873 -124.125 -349.237)" spreadMethod="reflect" x1="665.365" y1="310.83" x2="665.365" y2="313.878"/><linearGradient xlink:href="#a" id="y" gradientUnits="userSpaceOnUse" gradientTransform="matrix(.72008 0 0 1.38873 -124.125 -349.237)" spreadMethod="reflect" x1="641.062" y1="319.184" x2="639.633" y2="327.538"/><linearGradient xlink:href="#d" id="w" gradientUnits="userSpaceOnUse" gradientTransform="matrix(.72008 0 0 1.38873 -124.125 -349.237)" x1="656.788" y1="373.106" x2="656.788" y2="278.933"/><linearGradient xlink:href="#a" id="x" gradientUnits="userSpaceOnUse" gradientTransform="matrix(.72314 0 0 1.38285 -124.125 -349.237)" x1="653.25" y1="373.109" x2="653.25" y2="279.666"/><linearGradient xlink:href="#a" id="v" gradientUnits="userSpaceOnUse" gradientTransform="matrix(.5547 0 0 1.80278 -124.125 -349.237)" spreadMethod="reflect" x1="272.219" y1="285.291" x2="308.275" y2="262.756"/><linearGradient xlink:href="#f" id="u" gradientUnits="userSpaceOnUse" gradientTransform="matrix(1.38538 0 0 .72182 -124.125 -349.237)" x1="224.196" y1="503.96" x2="224.196" y2="749.765"/><linearGradient xlink:href="#b" id="t" gradientUnits="userSpaceOnUse" gradientTransform="matrix(4.09268 0 0 .24434 -124.125 -349.237)" x1="82.159" y1="1523.051" x2="82.159" y2="1441.195"/><linearGradient xlink:href="#b" id="s" gradientUnits="userSpaceOnUse" gradientTransform="matrix(2.82843 0 0 .35355 349.237 124.125)" x1="-159.934" y1="-1428.356" x2="-159.934" y2="-1484.429"/><linearGradient xlink:href="#b" id="r" gradientUnits="userSpaceOnUse" gradientTransform="matrix(2.82843 0 0 .35355 349.237 -124.125)" x1="-159.934" y1="480.337" x2="-159.934" y2="424.264"/><linearGradient xlink:href="#b" id="q" gradientUnits="userSpaceOnUse" gradientTransform="matrix(4.09268 0 0 .24434 124.125 349.237)" x1="-82.464" y1="-2178.786" x2="-82.464" y2="-2258.823"/><radialGradient xlink:href="#b" id="p" gradientUnits="userSpaceOnUse" gradientTransform="matrix(0 1.33333 -1.33334 0 870.693 -196.875)" cx="164.883" cy="367.245" fx="164.883" fy="367.245" r="14.883"/><radialGradient xlink:href="#b" id="o" gradientUnits="userSpaceOnUse" gradientTransform="matrix(0 -1.33333 -1.33334 0 870.693 403.125)" cx="164.883" cy="367.245" fx="164.883" fy="367.245" r="14.883"/><radialGradient xlink:href="#b" id="n" gradientUnits="userSpaceOnUse" gradientTransform="matrix(0 -1.33333 1.33334 0 -443.943 403.125)" cx="164.883" cy="367.245" fx="164.883" fy="367.245" r="14.883"/><radialGradient xlink:href="#b" id="m" gradientUnits="userSpaceOnUse" gradientTransform="matrix(1.33333 0 0 1.33334 -174.125 -466.692)" cx="164.884" cy="367.245" fx="164.884" fy="367.245" r="14.649"/><linearGradient xlink:href="#a" id="l" gradientUnits="userSpaceOnUse" gradientTransform="matrix(.7935 0 0 1.26025 -124.125 -349.237)" x1="219.605" y1="385.287" x2="169.105" y2="327.649"/><linearGradient xlink:href="#i" id="k" gradientUnits="userSpaceOnUse" gradientTransform="matrix(1.36931 0 0 .7303 -124.125 -349.237)" x1="234.543" y1="745.655" x2="234.543" y2="484.631"/><radialGradient xlink:href="#i" id="j" gradientUnits="userSpaceOnUse" gradientTransform="matrix(.7935 0 0 1.26025 -124.125 -349.237)" spreadMethod="reflect" cx="195.339" cy="367.994" fx="195.339" fy="367.994" r="10.19"/></defs><path d="M30.875 63.138c-13.8 0-25 17.92-25 40s11.2 40 25 40 25-17.92 25-40-11.2-40-25-40zm-10 30c5.52 0 10 4.48 10 10s-4.48 10-10 10-10-4.48-10-10 4.48-10 10-10z" fill="url(#j) #000" fill-rule="evenodd" stroke="#000" stroke-linecap="round" stroke-linejoin="round" stroke-opacity=".196"/><rect height="200" rx="20" ry="20" width="375" x="25.875" y="3.125" fill="url(#k) #000" fill-rule="evenodd"/><path d="M26.469 65.857c-15.49 7.222-19.485 26.812-18.285 42.397 1.127 12.795 6.42 28.96 20.26 32.474 13.661 1.804 21.565-13.226 23.943-24.646 3.513-16.592.96-36.815-12.887-48.1-3.923-2.533-8.495-3.385-13.031-2.125zM21.28 91.169c11.12-.115 15.868 16.28 6.13 21.816-9.196 7.084-22.73-4.638-17.411-14.878 2.182-4.268 6.462-6.97 11.281-6.938z" opacity=".563" fill="none" stroke="url(#l) #000" stroke-width="2" stroke-linecap="round" stroke-linejoin="round"/><path d="M45.875 23.125h-20c0-11.04 8.96-20 20-20v20z" fill="url(#m) #000" fill-rule="evenodd"/><path d="M45.875 183.125v20c-11.04 0-20-8.96-20-20h20z" fill="url(#n) #000" fill-rule="evenodd"/><path d="M380.875 183.125v20c11.04 0 20-8.96 20-20h-20z" fill="url(#o) #000" fill-rule="evenodd"/><path d="M380.875 23.125v-20c11.04 0 20 8.96 20 20h-20z" fill="url(#p) #000" fill-rule="evenodd"/><path transform="scale(-1)" fill="url(#q) #000" fill-rule="evenodd" d="M-380.875-203.125h335v20h-335z"/><path transform="rotate(-90)" fill="url(#r) #000" fill-rule="evenodd" d="M-183.125 25.875h160v20h-160z"/><path transform="matrix(0 -1 -1 0 0 0)" fill="url(#s) #000" fill-rule="evenodd" d="M-183.125-400.875h160v20h-160z"/><path fill="url(#t) #000" fill-rule="evenodd" d="M45.875 3.125h335v20h-335z"/><rect height="180.169" rx="10" ry="10" width="345.795" x="40.875" y="13.125" fill="url(#u) #000" fill-rule="evenodd"/><rect height="130" rx="2.5" ry="65" width="40" x="20.875" y="38.125" fill="url(#v) #000" fill-rule="evenodd"/><path opacity=".8" fill="url(#w) #000" fill-rule="evenodd" stroke="url(#x) #000" stroke-width="1.25" stroke-linecap="round" stroke-linejoin="round" d="M315.875 38.125h70v135h-70z"/><path opacity=".03" fill="url(#y) #000" fill-rule="evenodd" d="M315.875 38.125h70v135h-70z"/><path opacity=".03" fill="url(#z) #000" fill-rule="evenodd" d="M315.875 38.125h70v135h-70z"/><path opacity=".03" fill="url(#A) #000" fill-rule="evenodd" d="M315.875 38.125h70v135h-70z"/><path d="M186.104 12.924h124.413c3.288 0 6.07 4.93 6.07 5.917 15.172 33.528 15.172 132.14 0 165.668 0 .987-2.024 6.164-6.07 5.917H186.104c-3.362 0-6.07-2.639-6.07-5.917V18.841c0-3.278 2.708-5.917 6.07-5.917z" fill="none" stroke="url(#B) #000" stroke-width="1.25" stroke-linecap="round" stroke-linejoin="round" stroke-opacity=".784"/><path d="M187.38 14.125h122.075c3.225 0 5.955 4.864 5.955 5.837 14.887 33.075 14.887 130.352 0 163.427 0 .973-1.985 6.08-5.955 5.837H187.38c-3.3 0-5.955-2.604-5.955-5.837V19.962c0-3.233 2.656-5.837 5.955-5.837z" fill="#9f9f9f" fill-rule="evenodd" stroke="url(#C) #000" stroke-width="1.25" stroke-linecap="round" stroke-linejoin="round" stroke-opacity=".784"/><path d="M181.438 38.138v50h144.75c-.594-18.396-2.27-36.035-5.282-50H181.437z" fill="url(#D) #000" fill-rule="evenodd" stroke="url(#E) #000" stroke-width="1.25" stroke-linecap="round" stroke-linejoin="round" stroke-opacity=".784"/><path d="M181.438 107.125v62.013h138.875c3.8-16.625 5.723-39.097 6.062-62.013H181.437z" fill="url(#F) #000" fill-rule="evenodd"/><path d="M181.438 108.138v60h138.875c3.8-16.085 5.723-37.828 6.062-60H181.437z" fill="url(#G) #000" fill-rule="evenodd"/><rect height="130" rx="2.5" ry="65" width="40" x="20.875" y="38.125" opacity=".558" fill="url(#H) #000" fill-rule="evenodd"/><rect height="130" rx="2.5" ry="65" width="40" x="20.875" y="38.125" opacity=".614" fill="url(#I) #000" fill-rule="evenodd"/><path d="M53.039 13.625h117.836c24.808 0 24.808 180 0 180H53.04c-12.404 0-12.404-180 0-180z" opacity=".5" fill="none" stroke="url(#J) #000" stroke-width="3" stroke-linecap="round" stroke-linejoin="round"/><path d="M53.039 13.121c-2.555 0-4.545 7.61-6.047 19.327h135.977c-3.005-11.718-6.985-19.327-12.094-19.327H53.04z" fill="#fafafa" fill-rule="evenodd" stroke="#000" stroke-linecap="round" stroke-linejoin="round" stroke-opacity=".392"/><path d="M47.73 33.138c-4.245 34.63-4.247 105.385 0 140h134.534c8.494-34.615 8.49-105.37 0-140H47.73z" fill="url(#K) #000" fill-rule="evenodd"/><rect height="130" rx="7.5" ry="65" width="15" x="57.141" y="40.125" opacity=".5" fill-rule="evenodd"/><path d="M48.275 33.862c-4.211 34.272-4.213 104.295 0 138.553h133.47c8.426-34.258 8.423-104.281 0-138.553H48.275z" fill="none" stroke="url(#L) #000" stroke-width="2" stroke-linecap="round" stroke-linejoin="round"/><path d="M46.992 172.638c1.502 12.114 3.493 20 6.046 20h117.837c5.107 0 9.09-7.886 12.094-20H46.992z" fill="url(#M) #000" fill-rule="evenodd" stroke="#000" stroke-linecap="round" stroke-linejoin="round" stroke-opacity=".392"/><path d="M46.992 172.638c1.502 12.114 3.493 20 6.046 20h117.837c5.107 0 9.09-7.886 12.094-20H46.992z" opacity=".5" fill="url(#N) #000" fill-rule="evenodd"/><path d="M48.59 35.388c-4.192 33.517-4.194 101.998 0 135.5h132.854c8.387-33.503 8.384-101.983 0-135.5H48.59z" opacity=".03" fill="url(#O) #000" fill-rule="evenodd"/><path d="M48.59 35.388c-4.192 33.517-4.194 101.998 0 135.5h132.854c8.387-33.503 8.384-101.983 0-135.5H48.59z" opacity=".03" fill="url(#P) #000" fill-rule="evenodd"/><path d="M48.59 35.388c-4.192 33.517-4.194 101.998 0 135.5h132.854c8.387-33.503 8.384-101.983 0-135.5H48.59z" opacity=".05" fill="url(#Q) #000" fill-rule="evenodd"/><path d="M48.59 35.388c-4.192 33.517-4.194 101.998 0 135.5h132.854c8.387-33.503 8.384-101.983 0-135.5H48.59z" opacity=".03" fill="url(#R) #000" fill-rule="evenodd"/><path d="M320.25 115.586c0 34.15-27.674 61.835-61.812 61.835-34.137 0-61.812-27.685-61.812-61.835 0-34.151 27.675-61.836 61.812-61.836 34.138 0 61.812 27.685 61.812 61.836z" opacity=".6" fill="none" stroke="#000" stroke-width="1.25" stroke-linecap="round" stroke-linejoin="round" stroke-opacity=".784"/><path d="M320.25 115.586c0 34.15-27.674 61.835-61.812 61.835-34.137 0-61.812-27.685-61.812-61.835 0-34.151 27.675-61.836 61.812-61.836 34.138 0 61.812 27.685 61.812 61.836z" opacity=".8" fill="none" stroke="url(#S) #000" stroke-width="2.5" stroke-linecap="round" stroke-linejoin="round" stroke-opacity=".784"/><path d="M318.407 115.585c0 33.134-26.85 59.994-59.972 59.994-33.121 0-59.971-26.86-59.971-59.994s26.85-59.995 59.971-59.995c33.122 0 59.972 26.86 59.972 59.995z" fill="url(#T) #000" fill-rule="evenodd" stroke="url(#U) #000" stroke-width="1.25" stroke-linecap="round" stroke-linejoin="round" stroke-opacity=".784"/><path d="M309.899 115.586c0 28.431-23.04 51.48-51.461 51.48s-51.46-23.049-51.46-51.48c0-28.432 23.039-51.48 51.46-51.48 28.42 0 51.46 23.048 51.46 51.48z" fill-rule="evenodd" stroke="url(#V) #000" stroke-width="1.25" stroke-linecap="round" stroke-linejoin="round" stroke-opacity=".784"/><path d="M309.16 115.585c0 28.024-22.71 50.741-50.722 50.741-28.013 0-50.721-22.717-50.721-50.74 0-28.024 22.708-50.741 50.72-50.741 28.014 0 50.722 22.717 50.722 50.74z" fill="url(#W) #000" fill-rule="evenodd" stroke="url(#X) #000" stroke-width="1.25" stroke-linecap="round" stroke-linejoin="round" stroke-opacity=".784"/><path d="M309.16 115.585c0 28.024-22.71 50.741-50.722 50.741-28.013 0-50.721-22.717-50.721-50.74 0-28.024 22.708-50.741 50.72-50.741 28.014 0 50.722 22.717 50.722 50.74z" opacity=".85" fill="url(#Y) #000" fill-rule="evenodd" stroke="url(#Z) #000" stroke-width="1.25" stroke-linecap="round" stroke-linejoin="round" stroke-opacity=".784"/><path d="M297.653 115.586c0 21.666-17.557 39.23-39.215 39.23-21.658 0-39.215-17.564-39.215-39.23 0-21.666 17.557-39.23 39.215-39.23 21.658 0 39.215 17.564 39.215 39.23z" fill="#505050" fill-rule="evenodd" stroke="url(#aa) #000" stroke-width="1.25" stroke-linecap="round" stroke-linejoin="round" stroke-opacity=".784"/><path d="M235.188 88.345c-7.81 6.632-12.876 16.395-12.875 27.438 0 11.11 5.137 20.93 13.03 27.562h46.188c7.894-6.632 13.031-16.451 13.031-27.562 0-11.043-5.064-20.806-12.875-27.438h-46.5z" fill-rule="evenodd"/><path d="M237.144 89.972c-7.152 6.239-11.791 15.425-11.79 25.814 0 10.454 4.704 19.693 11.933 25.933h42.3c7.23-6.24 11.935-15.479 11.935-25.933 0-10.39-4.639-19.575-11.791-25.814h-42.587z" fill="#191919" fill-rule="evenodd"/><path d="M281.398 115.586c0 12.685-10.28 22.969-22.96 22.969-12.68 0-22.96-10.284-22.96-22.97 0-12.685 10.28-22.968 22.96-22.968 12.68 0 22.96 10.283 22.96 22.969z" fill="url(#ab) #000" fill-rule="evenodd"/><path d="M281.398 115.586c0 12.685-10.28 22.969-22.96 22.969-12.68 0-22.96-10.284-22.96-22.97 0-12.685 10.28-22.968 22.96-22.968 12.68 0 22.96 10.283 22.96 22.969z" opacity=".445" fill="url(#ac) #000" fill-rule="evenodd"/><path d="M281.398 115.586c0 12.685-10.28 22.969-22.96 22.969-12.68 0-22.96-10.284-22.96-22.97 0-12.685 10.28-22.968 22.96-22.968 12.68 0 22.96 10.283 22.96 22.969z" opacity=".199" fill="url(#ad) #000" fill-rule="evenodd"/><path d="M385.168 46.982c-2.9 8.638-5 31.529-5 58.656s2.1 49.987 5 58.625V46.982z" opacity=".7" fill-opacity=".784" fill-rule="evenodd"/><path opacity=".03" fill="url(#ae) #000" fill-rule="evenodd" d="M315.875 38.125h70v135h-70z"/><path d="M123.016 142.774c.902.23 1.572.644 2.01 1.242.437.597.656 1.4.656 2.408 0 1.477-.407 2.644-1.222 3.501-.814.857-1.919 1.286-3.313 1.286-1.399 0-2.505-.429-3.32-1.286-.814-.857-1.221-2.024-1.221-3.501 0-.52.062-1.06.187-1.623s.315-1.158.569-1.787h2.15v.744c-.734.152-1.284.43-1.65.832-.365.402-.547.934-.547 1.594 0 .851.313 1.484.94 1.898.627.414 1.591.621 2.892.621 1.3 0 2.263-.207 2.888-.62.625-.415.938-1.052.938-1.911 0-.582-.162-1.058-.486-1.427-.325-.369-.815-.637-1.471-.805v-1.166zm-1.33-7.23h3.117v-.892h.709v2.965h-.791c.328.274.57.578.727.914.156.336.234.72.234 1.149 0 .637-.171 1.126-.513 1.468-.342.341-.83.512-1.468.512-.699 0-1.222-.245-1.57-.735-.348-.49-.521-1.23-.521-2.218v-1.09h-.37c-.503 0-.875.12-1.116.358-.24.238-.36.607-.36 1.107 0 .414.085.734.255.958.17.225.448.384.835.478v.662h-1.342a6.676 6.676 0 0 1-.299-1.154 7.66 7.66 0 0 1-.1-1.26c0-1.113.208-1.929.622-2.447.414-.517 1.064-.776 1.95-.776zm1.869 2.073h-1.248v.78c0 .386.105.683.316.89.211.207.514.31.909.31.394 0 .689-.074.884-.225.196-.15.293-.38.293-.688 0-.32-.105-.578-.316-.774-.211-.195-.49-.293-.838-.293zm-3.252-10.529c-.414-.289-.716-.602-.905-.937-.19-.336-.284-.729-.284-1.178 0-.715.202-1.25.606-1.603.404-.353 1.015-.53 1.831-.53h3.252v-.89h.709v3.708h-.709v-.744h-2.941c-.778 0-1.268.06-1.471.179-.203.12-.305.34-.305.665 0 .367.142.652.425.855.283.204.687.305 1.21.305h3.082v-.744h.709v3.562h-.709v-.744h-2.941c-.778 0-1.268.06-1.471.182-.203.121-.305.342-.305.662 0 .371.142.658.425.861.283.204.687.305 1.21.305h3.082v-.744h.709v3.703h-.709v-.885h-4.81v.885h-.71v-2.959h.88c-.364-.242-.63-.52-.797-.832-.168-.312-.252-.684-.252-1.113 0-.508.096-.92.29-1.237.193-.316.493-.56.899-.732zm1.693-10.23c-.82 0-1.395.076-1.725.228-.33.152-.495.412-.495.78 0 .355.162.61.486.764.324.154.867.231 1.629.231h.105v-2.003zm.698-2.28v4.283h.047c.804 0 1.385-.12 1.743-.363.357-.242.536-.633.536-1.172 0-.449-.12-.812-.358-1.09-.238-.277-.584-.455-1.037-.533v-.972c.707.168 1.227.502 1.559 1.002.332.5.498 1.199.498 2.097 0 1.078-.284 1.906-.853 2.482-.568.576-1.38.864-2.434.864-1.031 0-1.836-.295-2.414-.885-.578-.59-.867-1.41-.867-2.46 0-1.032.303-1.823.91-2.374.608-.55 1.498-.844 2.67-.879zm-3.48-6.996h1.857v.662c-.332.024-.58.114-.742.27-.162.156-.243.383-.243.68 0 .453.2.81.598 1.072.398.261.951.392 1.658.392h2.461v-1.13h.709v4.09h-.709v-.885h-4.81v.949h-.71v-3.024h1.108c-.434-.203-.755-.471-.964-.805-.209-.334-.313-.743-.313-1.228 0-.12.008-.268.026-.442s.042-.374.073-.6zm2.472-6.492h3.117v-.89h.709v2.964h-.791c.328.274.57.578.727.914.156.336.234.719.234 1.149 0 .636-.171 1.126-.513 1.467-.342.342-.83.513-1.468.513-.699 0-1.222-.245-1.57-.735-.348-.49-.521-1.23-.521-2.218v-1.09h-.37c-.503 0-.875.12-1.116.358-.24.238-.36.607-.36 1.107 0 .414.085.733.255.958.17.225.448.384.835.478v.662h-1.342a6.676 6.676 0 0 1-.299-1.155 7.66 7.66 0 0 1-.1-1.26c0-1.113.208-1.928.622-2.446.414-.517 1.064-.776 1.95-.776zm1.869 2.074h-1.248v.78c0 .386.105.683.316.89.211.207.514.31.909.31.394 0 .689-.075.884-.225.196-.15.293-.38.293-.688 0-.32-.105-.578-.316-.774-.211-.195-.49-.293-.838-.293z" font-weight="700" fill="none" stroke="#fff" stroke-width=".625" stroke-opacity=".196" font-family="Bitstream Vera Serif"/><path d="M121.602 141.36c.902.23 1.572.644 2.01 1.242.437.597.656 1.4.656 2.408 0 1.477-.407 2.644-1.222 3.501-.814.857-1.919 1.286-3.313 1.286-1.399 0-2.505-.429-3.32-1.286-.814-.857-1.221-2.024-1.221-3.501 0-.52.062-1.06.187-1.623s.315-1.158.569-1.787h2.15v.744c-.734.152-1.284.43-1.65.832-.365.402-.547.934-.547 1.594 0 .851.313 1.484.94 1.898.627.414 1.591.621 2.892.621 1.3 0 2.263-.207 2.888-.62.625-.415.938-1.052.938-1.911 0-.582-.162-1.058-.486-1.427-.325-.369-.815-.637-1.471-.805v-1.166zm-1.33-7.23h3.117v-.892h.709v2.965h-.791c.328.274.57.578.727.914.156.336.234.72.234 1.149 0 .637-.171 1.126-.513 1.468-.342.341-.83.512-1.468.512-.699 0-1.222-.245-1.57-.735-.347-.49-.521-1.23-.521-2.218v-1.09h-.37c-.503 0-.875.12-1.116.358-.24.238-.36.607-.36 1.107 0 .414.085.734.255.958.17.225.448.384.835.478v.662h-1.342a6.675 6.675 0 0 1-.299-1.154 7.66 7.66 0 0 1-.1-1.26c0-1.114.208-1.929.622-2.447.414-.517 1.064-.776 1.95-.776zm1.869 2.073h-1.248v.78c0 .386.105.683.316.89.211.207.514.31.909.31.394 0 .689-.074.884-.225.196-.15.293-.38.293-.688 0-.32-.105-.578-.316-.774-.211-.195-.49-.293-.838-.293zm-3.252-10.529c-.414-.289-.716-.602-.905-.937-.19-.336-.284-.729-.284-1.178 0-.715.202-1.25.606-1.603.404-.353 1.015-.53 1.831-.53h3.252v-.89h.709v3.708h-.709v-.744h-2.941c-.778 0-1.268.06-1.471.179-.203.12-.305.34-.305.665 0 .367.142.652.425.855.283.204.687.305 1.21.305h3.082v-.744h.709v3.562h-.709v-.744h-2.941c-.778 0-1.268.06-1.471.182-.203.121-.305.342-.305.662 0 .371.142.658.425.861.283.204.687.305 1.21.305h3.082v-.744h.709v3.703h-.709v-.885h-4.81v.885h-.71v-2.959h.88c-.364-.242-.63-.52-.797-.832-.168-.312-.252-.684-.252-1.113 0-.508.096-.92.29-1.237.193-.316.493-.56.899-.732zm1.693-10.23c-.82 0-1.395.076-1.725.228-.33.152-.495.412-.495.78 0 .355.162.61.486.764.324.154.867.231 1.629.231h.105v-2.003zm.698-2.28v4.283h.047c.804 0 1.385-.12 1.743-.363.357-.242.536-.633.536-1.172 0-.449-.12-.812-.358-1.09-.238-.277-.584-.455-1.037-.533v-.972c.707.168 1.227.502 1.559 1.002.332.5.498 1.199.498 2.097 0 1.078-.284 1.906-.853 2.482-.568.576-1.38.864-2.434.864-1.031 0-1.836-.295-2.414-.885-.578-.59-.867-1.41-.867-2.46 0-1.032.303-1.823.91-2.374.608-.55 1.498-.844 2.67-.879zm-3.48-6.996h1.857v.662c-.332.024-.58.114-.742.27-.162.156-.243.383-.243.68 0 .453.2.81.598 1.072.398.261.951.392 1.658.392h2.461v-1.13h.709v4.09h-.709v-.885h-4.81v.949h-.71v-3.024h1.108c-.434-.203-.755-.471-.964-.805-.209-.334-.313-.743-.313-1.228 0-.12.008-.268.026-.442s.042-.374.073-.6zm2.472-6.492h3.117v-.89h.709v2.964h-.791c.328.274.57.578.727.914.156.336.234.719.234 1.149 0 .636-.171 1.126-.513 1.467-.342.342-.83.513-1.468.513-.699 0-1.222-.245-1.57-.735-.347-.49-.521-1.23-.521-2.218v-1.09h-.37c-.503 0-.875.12-1.116.358-.24.238-.36.607-.36 1.107 0 .414.085.733.255.958.17.225.448.384.835.478v.662h-1.342a6.675 6.675 0 0 1-.299-1.155 7.66 7.66 0 0 1-.1-1.26c0-1.113.208-1.928.622-2.446.414-.517 1.064-.776 1.95-.776zm1.869 2.074h-1.248v.78c0 .386.105.683.316.89.211.207.514.31.909.31.394 0 .689-.075.884-.225.196-.15.293-.38.293-.688 0-.32-.105-.578-.316-.774-.211-.195-.49-.293-.838-.293z" font-weight="700" fill="none" stroke="#000" stroke-width=".625" stroke-opacity=".196" font-family="Bitstream Vera Serif"/><path d="M-141.86 122.102c-.23.902-.644 1.572-1.242 2.01-.597.437-1.4.656-2.408.656-1.477 0-2.644-.407-3.501-1.222-.857-.814-1.286-1.919-1.286-3.313 0-1.399.429-2.505 1.286-3.32.857-.814 2.024-1.221 3.501-1.221.52 0 1.06.062 1.623.187s1.158.315 1.787.569v2.15h-.744c-.152-.734-.43-1.284-.832-1.65-.402-.365-.934-.547-1.594-.547-.851 0-1.484.313-1.898.94-.414.627-.621 1.591-.621 2.892 0 1.3.207 2.263.62 2.888.415.625 1.052.938 1.911.938.582 0 1.058-.162 1.427-.486.369-.325.637-.815.805-1.471h1.166zm7.23-1.33v3.117h.892v.709h-2.965v-.791a2.65 2.65 0 0 1-.914.727 2.693 2.693 0 0 1-1.149.234c-.637 0-1.126-.171-1.468-.513-.341-.342-.512-.83-.512-1.468 0-.699.245-1.222.735-1.57.49-.347 1.23-.521 2.218-.521h1.09v-.37c0-.503-.12-.875-.358-1.116-.238-.24-.607-.36-1.107-.36-.414 0-.734.085-.958.255-.225.17-.384.448-.478.835h-.662v-1.342a6.675 6.675 0 0 1 1.154-.299 7.66 7.66 0 0 1 1.26-.1c1.114 0 1.929.208 2.447.622.517.414.776 1.064.776 1.95zm-2.073 1.869v-1.248h-.78c-.386 0-.683.105-.89.316-.207.211-.31.514-.31.909 0 .394.074.689.225.884.15.196.38.293.688.293.32 0 .578-.105.774-.316.195-.211.293-.49.293-.838zm10.529-3.252c.289-.414.602-.716.937-.905.336-.19.729-.284 1.178-.284.715 0 1.25.202 1.603.606.353.404.53 1.015.53 1.831v3.252h.89v.709h-3.708v-.709h.744v-2.941c0-.778-.06-1.268-.179-1.471-.12-.203-.34-.305-.665-.305-.367 0-.652.142-.855.425-.204.283-.305.687-.305 1.21v3.082h.744v.709h-3.562v-.709h.744v-2.941c0-.778-.06-1.268-.182-1.471-.121-.203-.342-.305-.662-.305-.371 0-.658.142-.861.425-.204.283-.305.687-.305 1.21v3.082h.744v.709h-3.703v-.709h.885v-4.81h-.885v-.71h2.959v.88c.242-.364.52-.63.832-.797.312-.168.684-.252 1.113-.252.508 0 .92.096 1.237.29.316.193.56.493.732.899zm10.23 1.693c0-.82-.076-1.395-.228-1.725-.152-.33-.412-.495-.78-.495-.355 0-.61.162-.764.486-.154.324-.231.867-.231 1.629v.105h2.003zm2.28.698h-4.283v.047c0 .804.12 1.385.363 1.743.242.357.633.536 1.172.536.449 0 .812-.12 1.09-.358.277-.238.455-.584.533-1.037h.972c-.168.707-.502 1.227-1.002 1.559-.5.332-1.199.498-2.097.498-1.078 0-1.906-.284-2.482-.853-.576-.568-.864-1.38-.864-2.434 0-1.031.295-1.836.885-2.414.59-.578 1.41-.867 2.46-.867 1.032 0 1.823.303 2.374.91.55.608.844 1.498.879 2.67zm6.996-3.48v1.857h-.662c-.024-.332-.114-.58-.27-.742-.156-.162-.383-.243-.68-.243-.453 0-.81.2-1.072.598-.261.398-.392.951-.392 1.658v2.461h1.13v.709h-4.09v-.709h.885v-4.81h-.949v-.71h3.024v1.108c.203-.434.471-.755.805-.964.334-.209.743-.313 1.228-.313.12 0 .268.008.442.026s.374.042.6.073zm6.492 2.472v3.117h.89v.709h-2.964v-.791a2.65 2.65 0 0 1-.914.727 2.693 2.693 0 0 1-1.149.234c-.636 0-1.126-.171-1.467-.513-.342-.342-.513-.83-.513-1.468 0-.699.245-1.222.735-1.57.49-.347 1.23-.521 2.218-.521h1.09v-.37c0-.503-.12-.875-.358-1.116-.238-.24-.607-.36-1.107-.36-.414 0-.733.085-.958.255-.225.17-.384.448-.478.835h-.662v-1.342a6.675 6.675 0 0 1 1.155-.299 7.66 7.66 0 0 1 1.26-.1c1.113 0 1.928.208 2.446.622.517.414.776 1.064.776 1.95zm-2.074 1.869v-1.248h-.78c-.386 0-.683.105-.89.316-.207.211-.31.514-.31.909 0 .394.075.689.225.884.15.196.38.293.688.293.32 0 .578-.105.774-.316.195-.211.293-.49.293-.838z" transform="rotate(-90)" font-weight="700" fill="url(#af) #000" stroke="#000" stroke-width=".625" stroke-opacity=".784" font-family="Bitstream Vera Serif"/><path d="M347.214 128.664h-8.59v-2.959c0-.668.041-1.177.123-1.529a2.91 2.91 0 0 1 .615-1.26 3.495 3.495 0 0 1 1.468-1.016c.596-.225 1.277-.337 2.042-.337.653 0 1.23.076 1.735.228.503.153.92.348 1.25.586.33.239.59.5.78.783.19.283.333.625.43 1.025.098.4.147.86.147 1.38v3.1zm-1.014-1.136v-1.834c0-.567-.052-1.011-.158-1.333a1.907 1.907 0 0 0-.445-.77c-.27-.27-.632-.48-1.087-.63-.455-.151-1.007-.226-1.655-.226-.899 0-1.59.147-2.072.442-.482.295-.805.653-.97 1.075-.117.305-.175.795-.175 1.471v1.805h6.562zm-6.363-7.407h-1.213v-1.054h1.213v1.054zm7.377 0h-6.223v-1.054h6.223v1.054zm.516-2.472l.152-1.026c.316-.043.547-.162.691-.357.196-.262.293-.62.293-1.072 0-.489-.097-.865-.293-1.131a1.442 1.442 0 0 0-.82-.54c-.215-.054-.666-.08-1.353-.075.543.46.814 1.035.814 1.722 0 .856-.309 1.518-.926 1.987-.617.468-1.357.703-2.22.703a4.133 4.133 0 0 1-1.644-.323c-.502-.214-.89-.526-1.163-.934-.274-.408-.41-.888-.41-1.439 0-.734.297-1.34.89-1.816h-.75v-.973h5.38c.968 0 1.655.099 2.059.296.404.198.723.51.958.938.234.428.351.954.351 1.579 0 .742-.167 1.342-.5 1.799-.335.457-.838.677-1.51.662zm-3.739-.873c.817 0 1.412-.162 1.787-.487.375-.324.563-.73.563-1.218 0-.485-.187-.89-.56-1.22-.373-.327-.958-.491-1.755-.491-.761 0-1.335.169-1.722.507-.387.337-.58.745-.58 1.221 0 .469.19.867.571 1.196.38.328.946.492 1.696.492zm-4.154-6.006h-1.213v-1.055h1.213v1.055zm7.377 0h-6.223v-1.055h6.223v1.055zm-2.76-2.414l-.094-1.072c.43-.051.783-.17 1.058-.355.275-.185.498-.474.668-.864.17-.39.255-.83.255-1.319a3.16 3.16 0 0 0-.193-1.148c-.13-.332-.306-.58-.53-.741a1.23 1.23 0 0 0-.736-.243c-.27 0-.505.078-.706.234-.201.156-.37.414-.507.773-.09.23-.23.74-.419 1.53-.19.789-.368 1.342-.536 1.658-.215.41-.481.716-.8.917a1.96 1.96 0 0 1-1.07.302c-.433 0-.838-.123-1.215-.37-.377-.246-.663-.605-.858-1.078a4.09 4.09 0 0 1-.293-1.576c0-.636.102-1.198.307-1.684.205-.487.507-.86.906-1.122a2.6 2.6 0 0 1 1.353-.422l.082 1.09c-.543.058-.953.256-1.23.594-.278.338-.416.837-.416 1.497 0 .688.126 1.189.378 1.503.252.315.555.472.91.472a.977.977 0 0 0 .762-.334c.2-.219.404-.79.613-1.714.209-.924.391-1.557.548-1.901.23-.5.522-.87.876-1.108.353-.238.76-.357 1.221-.357.457 0 .888.13 1.292.393.405.261.719.637.944 1.127.224.49.336 1.042.336 1.656 0 .777-.113 1.428-.34 1.954a2.737 2.737 0 0 1-1.022 1.236c-.455.299-.97.456-1.544.472zm2.76-8.268h-8.59v-1.054h3.082a2.356 2.356 0 0 1-.855-1.864c0-.46.09-.861.272-1.2a1.6 1.6 0 0 1 .753-.73c.32-.147.785-.22 1.395-.22h3.943v1.055h-3.943c-.528 0-.911.114-1.152.342-.24.229-.36.552-.36.97 0 .313.081.607.243.882.162.275.382.472.66.589.277.117.66.176 1.148.176h3.404v1.054zm-3.111-6.287c-1.153 0-2.006-.32-2.56-.96-.462-.536-.692-1.188-.692-1.958 0-.855.28-1.554.84-2.097.561-.543 1.335-.815 2.324-.815.8 0 1.43.12 1.89.36.458.24.815.59 1.069 1.05.254.458.38.96.38 1.502 0 .871-.279 1.575-.837 2.112-.559.538-1.364.806-2.414.806zm0-1.084c.797 0 1.393-.174 1.79-.521.396-.348.594-.785.594-1.313 0-.523-.199-.959-.597-1.306-.399-.348-1.006-.522-1.822-.522-.77 0-1.353.175-1.75.524a1.67 1.67 0 0 0-.594 1.304c0 .528.197.965.592 1.313.394.347.99.521 1.787.521zm2.168-8.29l.931-.153c.063.297.094.562.094.797 0 .383-.06.68-.182.89-.12.211-.28.36-.477.446-.197.086-.612.129-1.245.129h-3.58v.773h-.82v-.773h-1.542l-.632-1.05h2.173v-1.06h.82v1.06h3.64c.3 0 .493-.018.58-.055a.44.44 0 0 0 .204-.182.702.702 0 0 0 .077-.36 3.5 3.5 0 0 0-.041-.463zm9.931 26.425l.287-1.137c.934.239 1.646.667 2.136 1.286.49.62.735 1.376.735 2.27 0 .927-.188 1.68-.565 2.26-.377.58-.923 1.021-1.638 1.324a5.843 5.843 0 0 1-2.302.454c-.895 0-1.675-.17-2.341-.513a3.513 3.513 0 0 1-1.518-1.459 4.263 4.263 0 0 1-.518-2.083c0-.86.218-1.582.656-2.168.437-.586 1.053-.994 1.846-1.224l.263 1.119c-.625.2-1.08.488-1.365.867-.285.379-.428.856-.428 1.43 0 .66.159 1.212.475 1.655.316.443.741.755 1.274.935a5.13 5.13 0 0 0 1.65.27c.73 0 1.368-.107 1.913-.32.545-.213.952-.544 1.222-.993.269-.45.404-.936.404-1.46 0-.636-.184-1.175-.551-1.617-.367-.441-.912-.74-1.635-.896zm-3.474-7.588l.082 1.049c-.414.094-.715.226-.903.398-.3.285-.45.637-.45 1.055 0 .336.093.63.28.885.243.332.596.594 1.061.785.465.191 1.127.29 1.986.299a2.444 2.444 0 0 1-1.142-2.086c0-.703.259-1.302.776-1.796.518-.494 1.187-.741 2.007-.741.539 0 1.04.116 1.503.348a2.54 2.54 0 0 1 1.063.958c.246.407.37.868.37 1.383 0 .88-.324 1.596-.97 2.15-.647.555-1.712.833-3.197.833-1.66 0-2.867-.307-3.62-.92-.657-.535-.985-1.256-.985-2.162 0-.676.19-1.23.568-1.662.38-.431.903-.69 1.57-.776zm3.703 4.307c.363 0 .71-.077 1.043-.232.332-.154.585-.37.759-.647.173-.278.26-.569.26-.873 0-.446-.18-.828-.539-1.149-.36-.32-.847-.48-1.465-.48-.593 0-1.061.158-1.403.474a1.56 1.56 0 0 0-.513 1.196c0 .476.171.88.513 1.213.342.332.79.498 1.345.498zm-1.453-5.514c-1.016 0-1.833-.104-2.452-.313-.62-.21-1.097-.52-1.433-.932-.336-.412-.504-.93-.504-1.556 0-.46.093-.865.278-1.213.186-.347.453-.634.803-.861.35-.227.775-.404 1.277-.533.502-.13 1.18-.194 2.03-.194 1.008 0 1.822.104 2.441.311.62.207 1.098.517 1.436.929.338.412.506.932.506 1.561 0 .828-.296 1.479-.89 1.951-.715.567-1.88.85-3.492.85zm0-1.084c1.41 0 2.348-.165 2.815-.495.467-.33.7-.737.7-1.222 0-.484-.234-.891-.703-1.221-.469-.33-1.406-.496-2.812-.496-1.414 0-2.354.165-2.819.496-.465.33-.697.74-.697 1.233 0 .484.205.871.615 1.16.524.363 1.49.545 2.9.545z" font-style="italic" font-weight="700" font-stretch="condensed" text-anchor="middle" font-family="Arial Narrow"/><rect height="16.529" rx="2.121" ry="2.121" width="73.766" x="311.99" y="16.372" fill="url(#ag) #000" fill-rule="evenodd" stroke="url(#ah) #000" stroke-width="1.25" stroke-linecap="round" stroke-linejoin="round"/><path opacity=".4" fill="url(#ai) #000" fill-rule="evenodd" d="M313.967 17.446h69.812v14.38h-69.812z"/><path opacity=".6" fill="url(#aj) #000" fill-rule="evenodd" d="M314.317 18.166h69.112v8.744h-69.112z"/><rect height="24.683" rx="2" ry="2" width="34.684" x="200.877" y="15.128" opacity=".9" fill="#191919" fill-rule="evenodd" stroke="url(#ak) #000" stroke-width=".625" stroke-linecap="round" stroke-linejoin="round"/><path d="M227.923 27.47c0 5.347-4.345 9.681-9.704 9.681-5.36 0-9.704-4.334-9.704-9.681 0-5.347 4.344-9.682 9.704-9.682s9.704 4.335 9.704 9.682z" opacity=".289" fill="url(#al) #000" fill-rule="evenodd"/><path d="M230.787 27.47c0 6.649-5.627 12.038-12.568 12.038s-12.568-5.39-12.568-12.038c0-6.648 5.627-12.038 12.568-12.038 6.94 0 12.568 5.39 12.568 12.038z" opacity=".234" fill="url(#am) #000" fill-rule="evenodd"/><path d="M228.312 31.005c0 3.329-4.519 6.027-10.093 6.027s-10.093-2.698-10.093-6.027c0-3.33 4.519-6.028 10.093-6.028s10.093 2.699 10.093 6.028z" fill="url(#an) #000" fill-rule="evenodd"/><path d="M218.74 25.485a1.966 1.966 0 0 1-1.034 1.719 2.15 2.15 0 0 1-2.072 0 1.966 1.966 0 0 1-1.034-1.719 1.966 1.966 0 0 1 1.034-1.718 2.15 2.15 0 0 1 2.072 0 1.966 1.966 0 0 1 1.033 1.718z" fill="url(#ao) #000" fill-rule="evenodd"/><path d="M226.433 31.838a4.207 4.207 0 1 1-8.415 0 4.207 4.207 0 1 1 8.415 0z" opacity=".751" fill="url(#ap) #000" fill-rule="evenodd"/><path d="M246.23 155.193c-22.016-6.785-34.398-30.019-27.656-51.894 6.742-21.874 30.055-34.106 52.071-27.32 22.016 6.785 34.398 30.019 27.656 51.893-6.742 21.875-30.055 34.107-52.071 27.321z" fill="none"/><path d="M281.397 81.02c19.213 12.764 24.508 38.585 11.827 57.674-12.68 19.09-38.535 24.219-57.748 11.456-19.213-12.763-24.508-38.584-11.827-57.673 12.68-19.09 38.536-24.219 57.748-11.456z" fill="none"/><path d="M21.156 86.076c-.071 6.052-.281 10.388-.281 17.062 0 25.085.547 46.093 1.344 56.938 1.336 2.828 2.709 4.781 3.968 4.656 4.174-.415 5.73-18.943 3.5-41.375-1.705-17.166-5.138-31.608-8.53-37.281z" fill="url(#aq) #000" fill-rule="evenodd"/><path d="M254.281 14.576c-3.855 2.478-6.437 6.798-6.437 11.718s2.582 9.21 6.437 11.688h15c3.857-2.478 6.438-6.766 6.438-11.688 0-4.921-2.581-9.24-6.438-11.718h-15z" opacity=".85" fill-rule="evenodd" stroke="url(#ar) #000" stroke-width=".85" stroke-linecap="round" stroke-linejoin="round"/><path d="M271.089 25.57c0 5.348-4.345 9.682-9.704 9.682-5.36 0-9.705-4.334-9.705-9.681 0-5.347 4.345-9.682 9.705-9.682 5.359 0 9.704 4.335 9.704 9.682z" opacity=".289" fill="url(#as) #000" fill-rule="evenodd"/><path d="M273.953 25.571c0 6.649-5.627 12.038-12.568 12.038s-12.568-5.39-12.568-12.038c0-6.648 5.627-12.038 12.568-12.038 6.94 0 12.568 5.39 12.568 12.038z" opacity=".234" fill="url(#at) #000" fill-rule="evenodd"/><path d="M271.478 29.105c0 3.33-4.519 6.028-10.093 6.028s-10.093-2.699-10.093-6.028c0-3.329 4.519-6.027 10.093-6.027s10.093 2.698 10.093 6.027z" fill="url(#au) #000" fill-rule="evenodd"/><path d="M262.62 22.69a1.98 1.98 0 1 1-3.959 0 1.98 1.98 0 1 1 3.96 0z" fill="url(#av) #000" fill-rule="evenodd"/><path d="M267.808 30.386a4.207 4.207 0 1 1-8.415 0 4.207 4.207 0 1 1 8.415 0z" opacity=".751" fill="url(#aw) #000" fill-rule="evenodd"/><path d="M258.518 16.972c3.259.556 4.98 4.636 3.843 9.112-1.137 4.475-4.7 7.652-7.959 7.096-3.259-.557-4.98-4.636-3.843-9.112 1.136-4.476 4.7-7.653 7.959-7.096z" fill="url(#ax) #000" fill-rule="evenodd"/><path d="M215.806 19.766c3.258.544 4.976 4.512 3.836 8.864-1.14 4.353-4.706 7.441-7.964 6.898-3.259-.543-4.976-4.512-3.836-8.864 1.14-4.352 4.705-7.44 7.964-6.898z" fill="url(#ay) #000" fill-rule="evenodd"/><rect height="130" rx="7.5" ry="65" width="15" x="55.875" y="38.125" fill="url(#az) #000" fill-rule="evenodd" stroke="url(#aA) #000" stroke-width="2" stroke-linecap="round" stroke-linejoin="round" stroke-opacity=".196"/><rect height="130" rx="7.5" ry="65" width="15" x="55.875" y="38.125" opacity=".65" fill="url(#aB) #000" fill-rule="evenodd"/><rect height="100" rx="3.918" ry="65" width="11.538" x="57.606" y="53.125" opacity=".538" fill="url(#aC) #000" fill-rule="evenodd" stroke="#000" stroke-linecap="round" stroke-linejoin="round" stroke-opacity=".392"/><rect height="41.306" rx="4.858" ry="65" width="8.642" x="59.054" y="58.125" fill="url(#aD) #000" fill-rule="evenodd"/><rect height="87.584" rx="3.918" ry="65" width="10.106" x="58.322" y="59.334" opacity=".244" fill="url(#aE) #000" fill-rule="evenodd"/><path d="M39.755 79.531c-1.986 23.929-5.532 42.879-7.92 42.326-2.389-.553-2.715-20.399-.728-44.328 1.986-23.928 5.532-42.878 7.92-42.325 2.388.553 2.714 20.399.728 44.327z" opacity=".624" fill="url(#aF) #000" fill-rule="evenodd"/><path d="M41.657 123.03c.94 24.422-2.221 43.426-7.059 42.445-4.838-.98-9.52-21.573-10.46-45.996-.94-24.423 2.221-43.426 7.059-42.446 4.838.98 9.52 21.573 10.46 45.996z" opacity=".492" fill="url(#aG) #000" fill-rule="evenodd"/><path d="M-190.252 21.938c.59.152 1.038.417 1.344.794.307.377.46.856.46 1.438 0 .867-.332 1.527-.996 1.978-.664.451-1.633.677-2.906.677a8.738 8.738 0 0 1-2.69-.434v-1.74c.422.21.841.37 1.257.477.416.108.826.161 1.228.161.598 0 1.056-.103 1.374-.31a1 1 0 0 0 .477-.89c0-.4-.163-.701-.489-.906-.326-.205-.807-.308-1.444-.308h-.902v-1.453h.949c.566 0 .988-.089 1.265-.266.278-.178.416-.449.416-.812a.888.888 0 0 0-.404-.78c-.27-.183-.65-.275-1.142-.275-.364 0-.731.041-1.102.123a6.02 6.02 0 0 0-1.107.364v-1.653c.445-.125.886-.218 1.324-.28a9.111 9.111 0 0 1 1.289-.095c1.137 0 1.987.187 2.552.56.564.373.846.935.846 1.685 0 .511-.135.93-.404 1.256-.27.327-.668.556-1.195.689zm3.978 2.45h2.11v2.267h-2.11v-2.268zm6.803.608h3.85v1.659h-6.358v-1.659l3.193-2.818c.286-.258.497-.51.633-.756a1.56 1.56 0 0 0 .205-.767c0-.41-.137-.74-.413-.99-.275-.25-.641-.376-1.098-.376-.352 0-.737.076-1.155.226a7.15 7.15 0 0 0-1.341.67v-1.921a10.79 10.79 0 0 1 1.505-.384 8.356 8.356 0 0 1 1.46-.132c1.046 0 1.86.23 2.44.692.58.46.87 1.103.87 1.928 0 .476-.123.92-.37 1.333-.245.412-.763.963-1.552 1.655l-1.87 1.64z" transform="matrix(0 -.64618 1.54755 0 0 0)" font-size="12" font-weight="700" opacity=".518" stroke="url(#aH) #000" font-family="Bitstream Vera Sans"/><path d="M-121.818 19.05h2.871l1.992 4.682 2.004-4.681h2.865v8.748h-2.132V21.4l-2.016 4.717h-1.43l-2.015-4.717v6.4h-2.139v-8.75zm11.953 0h6.088v1.706h-3.832v1.629h3.604v1.705h-3.604v2.004h3.961v1.705h-6.217V19.05zm16.067 8.098a8.051 8.051 0 0 1-1.752.615 8.487 8.487 0 0 1-1.875.206c-1.457 0-2.612-.408-3.463-1.222-.852-.815-1.278-1.92-1.278-3.314 0-1.41.434-2.52 1.301-3.328.867-.808 2.055-1.213 3.563-1.213.582 0 1.14.055 1.673.164.533.11 1.036.272 1.508.487v1.81a6.594 6.594 0 0 0-1.456-.62 5.297 5.297 0 0 0-1.45-.206c-.898 0-1.59.251-2.077.753-.486.502-.73 1.22-.73 2.153 0 .926.235 1.641.704 2.145.468.504 1.134.756 1.998.756.234 0 .452-.015.653-.044a2.48 2.48 0 0 0 .542-.138v-1.7h-1.377v-1.51h3.516v4.206zm7.289-.943h-3.528l-.556 1.594h-2.268l3.24-8.748h2.69l3.24 8.748h-2.268l-.55-1.594zm-2.965-1.623h2.396l-1.195-3.48-1.201 3.48zm-36.211 2.611h3.744c1.113 0 1.968.247 2.564.741.595.494.893 1.199.893 2.113 0 .918-.298 1.624-.893 2.118-.596.494-1.45.74-2.564.74h-1.488v3.036h-2.256v-8.748zm2.256 1.635v2.443h1.248c.437 0 .775-.106 1.013-.32.239-.212.358-.514.358-.904 0-.391-.12-.692-.358-.903-.238-.21-.576-.316-1.013-.316h-1.248zm6.533-1.635h2.256v8.748h-2.256v-8.748zm9.352 4.283l3.035 4.465h-2.35l-2.045-2.988-2.027 2.988h-2.362l3.036-4.465-2.918-4.283h2.355l1.916 2.818 1.91-2.818h2.367l-2.917 4.283zm4.382-4.283h6.088v1.705h-3.832v1.629h3.604v1.705h-3.604v2.004h3.961v1.705h-6.217v-8.748zm8.203 0h2.256v7.043h3.961v1.705h-6.217v-8.748zm13.729.275v1.852a8.033 8.033 0 0 0-1.406-.486 5.573 5.573 0 0 0-1.295-.164c-.54 0-.938.074-1.196.222-.257.149-.386.38-.386.692a.65.65 0 0 0 .26.548c.174.13.49.243.947.336l.96.194c.973.195 1.665.492 2.075.89.41.399.615.965.615 1.7 0 .964-.286 1.682-.858 2.153-.573.47-1.447.706-2.622.706a8.983 8.983 0 0 1-1.67-.158 10.336 10.336 0 0 1-1.676-.469V33.58a8.47 8.47 0 0 0 1.62.67 5.423 5.423 0 0 0 1.509.226c.492 0 .869-.082 1.13-.246a.783.783 0 0 0 .393-.703c0-.273-.089-.484-.266-.633-.178-.148-.533-.281-1.064-.398l-.873-.194c-.875-.187-1.514-.486-1.919-.896-.404-.41-.606-.963-.606-1.658 0-.871.281-1.541.844-2.01.562-.469 1.37-.703 2.425-.703.48 0 .975.036 1.483.108.508.073 1.033.18 1.576.325z" transform="matrix(0 -.89321 1.11955 0 0 0)" font-size="12" font-weight="700" text-anchor="middle" opacity=".685" stroke="url(#aI) #000" font-family="Bitstream Vera Sans"/></svg>